<?xml version="1.0" standalone="no"?>
<!DOCTYPE svg PUBLIC "-//W3C//DTD SVG 20010904//EN"
 "http://www.w3.org/TR/2001/REC-SVG-20010904/DTD/svg10.dtd">
<svg version="1.0" xmlns="http://www.w3.org/2000/svg"
 width="1200.000000pt" height="1200.000000pt" viewBox="0 0 1200.000000 1200.000000"
 preserveAspectRatio="xMidYMid meet">
<metadata>
Created by potrace 1.14, written by Peter Selinger 2001-2017
</metadata>
<g transform="translate(0.000000,1200.000000) scale(0.100000,-0.100000)"
fill="#000000" stroke="none">
<path d="M7359 11646 c-2 -2 -49 -9 -104 -15 -160 -17 -244 -31 -340 -56 -103
-27 -221 -62 -250 -75 -30 -13 -55 -20 -113 -36 -30 -8 -73 -25 -95 -38 -23
-13 -56 -26 -74 -29 -28 -6 -125 -49 -188 -85 -11 -6 -47 -23 -80 -38 -33 -15
-72 -35 -87 -46 -14 -10 -35 -18 -46 -18 -12 0 -24 -5 -27 -10 -4 -6 -34 -24
-68 -42 -34 -17 -82 -46 -106 -64 -24 -19 -49 -34 -56 -34 -7 0 -19 -7 -26
-16 -7 -9 -22 -20 -34 -25 -11 -5 -54 -34 -95 -64 -41 -30 -92 -67 -113 -80
-40 -27 -64 -46 -105 -82 -14 -13 -30 -23 -37 -23 -7 0 -39 -26 -72 -57 -234
-228 -284 -276 -329 -324 -65 -70 -184 -215 -184 -225 0 -4 -7 -14 -16 -23
-30 -31 -134 -200 -154 -251 -7 -19 -19 -42 -25 -50 -7 -8 -31 -61 -54 -118
-35 -89 -40 -109 -32 -137 10 -38 6 -44 -69 -88 -77 -46 -84 -51 -130 -87 -80
-63 -119 -90 -127 -90 -4 0 -20 -11 -34 -23 -13 -13 -30 -26 -36 -28 -36 -13
-235 -209 -329 -324 -31 -38 -65 -79 -75 -90 -67 -73 -133 -157 -164 -211 -21
-35 -48 -75 -61 -89 -13 -15 -24 -31 -24 -37 0 -12 -5 -23 -74 -169 -20 -42
-36 -83 -36 -91 0 -8 -7 -23 -15 -34 -8 -10 -15 -26 -15 -34 0 -8 -7 -28 -15
-44 -8 -15 -15 -33 -15 -38 0 -6 -6 -24 -14 -41 -8 -18 -18 -50 -22 -72 -4
-22 -8 -44 -10 -50 -1 -5 -11 -50 -23 -100 -12 -49 -25 -108 -31 -130 -16 -69
-34 -310 -32 -420 2 -65 10 -174 15 -191 4 -10 11 -57 17 -103 5 -46 14 -89
19 -95 5 -6 16 -38 24 -71 19 -78 52 -166 85 -229 15 -28 30 -58 34 -67 4 -11
-11 -34 -50 -76 -66 -70 -119 -168 -128 -236 -6 -45 -9 -48 -48 -59 -22 -7
-58 -23 -80 -36 -47 -29 -126 -101 -126 -114 0 -6 -11 -23 -25 -39 -27 -33
-24 -59 9 -59 13 0 30 14 45 36 37 53 126 129 168 142 31 10 38 9 49 -6 8 -9
14 -27 14 -39 0 -12 6 -34 14 -50 53 -108 51 -104 33 -114 -19 -11 -107 -123
-107 -137 0 -5 -6 -22 -14 -38 -8 -16 -14 -54 -13 -84 2 -48 5 -55 24 -58 18
-3 24 4 32 35 6 21 11 46 11 55 0 33 51 125 82 148 31 23 32 23 42 5 10 -18
21 -30 99 -114 16 -17 74 -53 130 -81 56 -28 109 -54 117 -59 17 -10 64 -26
135 -48 65 -20 83 -27 195 -76 19 -8 60 -23 90 -32 138 -44 240 -87 350 -150
14 -8 44 -23 68 -32 l43 -18 -23 -21 c-69 -65 -118 -114 -156 -160 -47 -56
-142 -111 -210 -121 -20 -3 -42 -10 -49 -15 -6 -5 -66 -10 -132 -10 -126 -1
-156 6 -220 49 -19 13 -44 23 -55 23 -12 0 -44 14 -71 31 -47 30 -50 30 -76
15 -15 -9 -31 -16 -37 -16 -5 0 -41 26 -79 58 -38 32 -89 66 -112 75 -41 17
-62 20 -217 32 -121 9 -226 -35 -261 -110 -10 -22 -27 -42 -38 -45 -11 -3 -30
-12 -41 -20 -25 -19 -55 -98 -48 -126 4 -15 -1 -23 -19 -31 -40 -19 -72 -97
-71 -174 1 -37 8 -79 16 -95 54 -103 72 -134 79 -134 4 0 17 -21 30 -47 13
-27 53 -78 93 -116 83 -80 171 -157 179 -157 14 0 98 -63 117 -88 11 -15 30
-39 41 -54 12 -16 33 -34 48 -41 14 -7 25 -18 24 -25 -2 -6 4 -29 12 -52 28
-79 256 -280 318 -280 9 0 17 -4 17 -9 0 -12 74 -41 103 -41 13 0 28 -5 33
-10 6 -6 28 -12 51 -14 22 -2 46 -6 52 -11 7 -4 34 -9 59 -11 26 -2 58 -8 72
-14 25 -9 152 -19 285 -23 l69 -2 9 -35 c4 -19 9 -47 11 -62 1 -16 14 -58 28
-95 78 -207 77 -206 29 -298 -23 -42 -41 -83 -41 -91 0 -8 -6 -25 -14 -37 -13
-21 -27 -103 -43 -258 -13 -121 11 -362 47 -484 10 -33 29 -101 43 -152 14
-50 33 -105 41 -122 22 -41 21 -41 -23 -41 -21 0 -55 -7 -74 -15 -20 -8 -47
-15 -59 -15 -13 0 -45 -12 -73 -25 -27 -14 -56 -25 -63 -25 -7 0 -20 -4 -30
-9 -9 -5 -62 -30 -117 -56 -155 -72 -167 -78 -173 -94 -3 -9 -18 -28 -34 -43
-15 -15 -28 -33 -28 -39 0 -7 -8 -21 -17 -31 -17 -19 -63 -148 -63 -177 0 -9
-5 -22 -10 -27 -6 -6 -13 -53 -17 -105 -4 -73 -2 -111 12 -164 21 -88 37 -113
105 -166 30 -24 57 -46 60 -50 5 -6 34 -20 145 -67 28 -12 61 -24 75 -26 14
-2 39 -9 55 -16 93 -36 769 -23 865 17 8 4 40 12 70 19 30 7 82 22 114 33 33
12 71 21 85 21 14 0 40 9 56 20 17 11 38 20 48 20 17 0 48 15 77 36 8 7 44 22
80 34 36 13 79 34 97 47 17 12 37 23 43 23 6 0 34 24 63 54 80 82 94 104 144
223 34 82 37 95 35 181 -1 84 -5 101 -35 165 -19 40 -46 85 -61 100 -33 36
-33 54 2 97 33 40 102 168 102 188 0 7 16 43 35 79 19 36 35 73 35 81 0 11 8
13 33 8 17 -3 62 -8 99 -10 64 -5 145 -22 161 -36 4 -4 9 -20 11 -36 5 -35 32
-100 45 -108 5 -4 19 -26 31 -50 23 -49 144 -177 188 -200 15 -8 41 -30 58
-49 16 -19 48 -45 70 -58 23 -13 78 -50 122 -81 44 -32 86 -58 94 -58 8 0 18
-4 23 -8 6 -5 37 -19 70 -31 33 -13 76 -31 96 -42 20 -10 53 -19 72 -19 20 0
38 -4 41 -9 3 -5 23 -9 43 -9 21 -1 72 -10 113 -21 41 -11 86 -21 99 -21 18 0
22 -4 16 -17 -4 -10 -9 -34 -12 -53 -2 -19 -7 -42 -11 -50 -6 -16 -9 -36 -16
-120 -3 -30 -9 -84 -14 -120 -12 -91 -5 -225 14 -263 66 -131 187 -196 407
-221 178 -21 300 -12 360 25 18 10 41 19 53 19 11 0 35 11 54 25 19 14 37 25
41 25 4 0 23 14 41 30 18 17 52 43 75 58 24 15 43 32 43 39 0 6 8 14 18 17 10
3 49 40 87 81 38 41 73 75 78 75 5 0 26 19 46 42 20 23 51 57 69 76 18 20 51
63 74 96 23 34 44 63 48 66 4 3 17 24 29 47 11 23 25 44 31 48 5 3 10 13 10
22 0 9 8 26 18 37 22 26 97 195 113 256 34 129 41 184 42 315 0 130 -8 195
-33 253 -6 12 -16 34 -22 50 -12 26 -39 62 -66 85 -15 14 -38 37 -85 86 -18
18 -42 37 -55 42 -21 8 -22 10 -8 25 9 8 16 21 16 28 0 7 7 26 15 42 8 17 17
52 20 79 3 26 13 61 21 77 8 16 14 34 13 41 -1 6 -1 24 0 39 1 26 2 26 89 30
80 3 92 6 141 37 72 46 171 187 171 243 0 12 14 18 55 23 55 7 124 47 125 72
0 7 6 16 13 20 22 14 43 55 72 141 27 76 28 87 18 146 -7 44 -21 79 -47 116
-20 28 -33 57 -29 64 4 6 16 25 28 41 32 46 43 88 35 136 -14 91 -33 132 -86
184 -60 60 -122 85 -229 91 -55 3 -74 9 -95 28 -14 13 -54 38 -90 55 -64 31
-123 39 -200 28 -33 -5 -177 -66 -193 -81 -27 -27 -46 -25 -79 4 -18 17 -38
30 -46 30 -7 0 -15 6 -18 14 -3 8 -20 20 -37 27 -18 8 -39 20 -49 28 -15 13
-46 26 -125 54 -28 10 -35 20 -49 67 -10 30 -23 62 -31 71 -7 8 -13 20 -13 26
0 5 -13 20 -30 33 -16 12 -32 31 -36 42 -5 16 -137 121 -242 193 l-29 20 71 1
c143 3 325 55 412 119 16 13 50 28 75 35 24 7 53 16 64 20 11 4 39 13 62 20
30 9 45 20 54 41 6 16 14 29 17 29 2 0 26 -10 51 -21 25 -12 55 -25 66 -30 39
-16 176 -49 201 -49 43 0 114 69 120 115 1 13 5 32 9 44 3 11 1 29 -4 40 -9
17 -7 22 17 36 40 24 74 103 66 154 -6 37 -4 41 19 46 30 8 71 71 81 126 5 29
1 42 -18 70 -14 19 -42 59 -63 89 -69 100 -236 246 -340 299 -31 15 -43 28
-48 51 -5 22 -17 36 -45 50 -22 11 -45 20 -53 20 -8 0 -27 6 -43 14 -16 8 -36
16 -44 18 -8 2 -21 11 -28 21 -16 21 -49 38 -128 66 -52 18 -91 22 -255 26
-107 3 -232 8 -279 11 -89 6 -238 5 -324 -2 -149 -12 -180 -16 -195 -26 -13
-8 -23 -8 -37 0 -17 9 -13 12 29 23 26 7 60 25 77 40 16 15 33 29 38 31 20 7
145 124 153 143 5 11 27 43 49 70 36 45 140 240 140 263 0 5 11 30 25 56 14
26 25 58 25 71 0 13 4 26 9 29 11 7 31 136 32 216 1 36 4 73 6 83 4 17 7 17
21 4 21 -19 63 -30 79 -19 30 19 4 211 -38 292 -11 19 -19 40 -19 46 0 6 -13
28 -30 49 -16 21 -30 43 -30 50 0 6 -11 22 -25 35 -14 13 -35 43 -47 67 -12
24 -25 43 -30 43 -4 0 -8 4 -8 8 0 5 25 7 55 4 54 -4 54 -4 72 32 19 40 13 60
-22 80 -26 15 -43 28 -69 51 -29 26 -72 55 -118 78 -22 11 -41 30 -49 50 -7
18 -21 38 -31 45 -10 7 -18 21 -19 30 0 9 -9 31 -20 47 -10 17 -21 37 -25 45
-46 118 -71 197 -79 250 -2 14 -11 50 -20 80 -9 30 -20 74 -25 97 -17 78 -82
196 -182 329 -106 143 -178 215 -255 254 -26 14 -55 30 -63 36 -8 6 -44 22
-80 34 -80 27 -91 37 -54 45 64 13 109 28 130 42 13 8 28 12 33 9 6 -4 39 3
73 15 77 26 153 46 238 64 36 7 124 30 195 50 122 35 275 74 373 95 23 5 51
14 61 20 11 5 32 10 48 10 15 0 41 7 57 15 16 8 34 14 40 13 36 -6 240 56 318
98 14 8 31 14 38 14 15 0 102 39 120 55 8 7 33 19 55 26 22 7 57 24 77 36 21
13 41 23 46 23 4 0 21 11 37 25 42 34 133 95 143 95 5 0 29 15 53 33 24 19 62
45 84 58 85 50 115 71 115 80 0 5 7 9 16 9 20 0 145 95 232 178 36 34 69 62
72 62 3 0 24 26 48 58 23 31 71 87 107 125 36 37 65 71 65 75 0 5 12 19 26 33
14 13 32 36 40 51 7 14 20 32 28 40 20 20 52 87 60 125 4 18 18 55 32 83 13
27 24 56 24 64 0 8 4 17 9 20 11 7 22 71 27 162 4 66 3 73 -26 112 -16 23 -38
42 -47 42 -9 0 -30 4 -47 9 -61 19 -223 50 -331 65 -310 42 -492 45 -785 12
-41 -5 -94 -18 -105 -26 -5 -4 -33 -10 -62 -13 -29 -3 -65 -13 -82 -21 -16 -9
-43 -16 -58 -16 -50 0 -415 -125 -533 -183 -41 -20 -98 -43 -126 -51 -28 -8
-70 -26 -92 -39 l-40 -26 8 32 c5 18 14 48 20 67 19 56 16 320 -4 358 -9 17
-16 42 -16 55 0 25 -61 94 -95 107 -21 8 -149 13 -156 6z m154 -109 c18 -23
19 -27 34 -112 12 -71 -1 -289 -22 -359 -28 -96 -51 -125 -119 -156 -34 -16
-70 -37 -80 -49 -11 -12 -26 -21 -34 -21 -12 0 -28 -11 -88 -60 -7 -5 -28 -16
-48 -24 -20 -8 -36 -20 -36 -25 0 -6 -26 -24 -57 -41 -94 -50 -137 -78 -155
-100 -9 -11 -20 -20 -26 -20 -5 0 -17 -9 -27 -20 -10 -11 -23 -20 -28 -20 -6
0 -32 -18 -58 -40 -26 -22 -50 -40 -54 -40 -4 0 -12 -6 -19 -12 -8 -7 -33 -29
-56 -48 -24 -19 -59 -52 -79 -72 -20 -21 -40 -38 -44 -38 -7 0 -249 -241 -322
-320 -34 -37 -130 -161 -202 -261 -24 -32 -63 -97 -89 -145 -43 -82 -45 -87
-29 -110 8 -13 20 -24 25 -24 17 0 45 38 64 87 17 42 77 128 196 281 19 25 40
53 46 63 10 18 22 31 129 146 79 85 195 197 213 207 9 4 40 31 68 60 28 28 71
66 95 84 24 18 62 47 84 64 22 16 67 49 100 71 33 22 65 46 70 52 13 14 140
97 183 119 17 9 32 20 32 24 0 4 23 18 51 32 27 13 57 32 66 42 9 10 20 18 24
18 5 0 43 23 85 50 42 28 84 50 93 50 9 0 30 8 46 18 71 43 165 92 178 92 7 0
18 5 24 11 12 12 201 99 215 99 4 0 29 10 56 23 26 12 88 35 137 51 50 16 99
32 110 37 11 5 40 13 65 19 25 5 70 16 100 26 30 9 73 20 95 24 22 5 63 14 90
20 28 7 77 18 109 26 32 7 62 12 66 9 3 -2 35 0 71 5 67 10 292 13 344 4 17
-2 65 -7 109 -10 43 -2 87 -9 98 -15 11 -6 26 -8 35 -5 8 3 22 2 31 -3 10 -5
47 -12 83 -15 178 -16 282 -54 293 -108 7 -34 -12 -127 -31 -149 -7 -8 -13
-23 -13 -33 0 -15 -42 -128 -71 -191 -22 -48 -124 -184 -192 -255 -28 -31 -68
-76 -87 -100 -56 -72 -100 -113 -253 -240 -27 -22 -54 -40 -61 -40 -7 0 -21
-9 -33 -19 -22 -20 -179 -121 -189 -121 -3 0 -24 -16 -47 -35 -22 -19 -45 -35
-50 -35 -5 0 -26 -13 -46 -29 -20 -16 -63 -43 -96 -61 -95 -51 -252 -130 -260
-130 -7 0 -23 -7 -116 -48 -26 -12 -60 -24 -75 -28 -16 -4 -33 -10 -39 -14 -5
-5 -35 -13 -65 -19 -137 -27 -204 -44 -365 -91 -38 -11 -97 -25 -130 -31 -33
-6 -93 -23 -134 -36 -41 -14 -104 -31 -140 -39 -137 -28 -229 -52 -292 -74
-35 -12 -105 -32 -154 -45 -50 -12 -105 -29 -122 -38 -17 -9 -52 -21 -77 -27
-43 -9 -101 -32 -166 -63 -28 -14 -38 -51 -20 -73 10 -11 27 -13 79 -8 76 7
183 -17 273 -62 29 -14 63 -29 75 -33 50 -14 215 -182 269 -272 6 -11 18 -27
26 -36 18 -22 78 -145 78 -162 0 -6 7 -22 15 -35 17 -26 41 -104 57 -186 5
-30 14 -59 19 -65 5 -5 9 -24 9 -42 0 -19 6 -44 14 -56 7 -12 22 -47 32 -77
10 -30 29 -71 41 -90 13 -19 23 -41 23 -48 0 -25 114 -161 149 -178 31 -15 33
-17 15 -27 -10 -6 -22 -15 -26 -21 -13 -20 2 -98 24 -125 13 -15 36 -48 52
-74 17 -26 33 -47 38 -47 4 0 15 -17 24 -37 10 -21 35 -64 57 -96 35 -53 73
-157 57 -157 -3 0 -15 7 -26 15 -24 18 -58 19 -72 3 -6 -9 -7 -50 -2 -118 7
-101 -2 -253 -19 -295 -4 -11 -21 -60 -37 -110 -30 -93 -79 -197 -120 -252
-13 -17 -24 -35 -24 -39 0 -11 -89 -115 -134 -157 -59 -55 -137 -113 -165
-122 -23 -7 -114 -49 -141 -65 -93 -54 -166 -80 -285 -100 -132 -23 -165 -31
-225 -56 -36 -14 -72 -32 -80 -39 -8 -7 -33 -18 -55 -25 -22 -7 -47 -18 -55
-25 -8 -8 -28 -17 -45 -21 -16 -4 -43 -20 -59 -35 -22 -22 -27 -34 -23 -56 9
-46 -74 -176 -132 -207 -71 -39 -196 -96 -209 -96 -5 0 -15 -7 -22 -15 -7 -8
-16 -13 -20 -10 -4 3 -18 -4 -31 -14 -13 -10 -42 -24 -64 -31 -22 -7 -54 -19
-70 -26 -17 -7 -53 -18 -80 -24 -28 -6 -84 -22 -125 -36 -41 -13 -96 -31 -121
-39 -26 -8 -56 -15 -67 -15 -12 0 -24 -4 -27 -10 -3 -5 -18 -10 -32 -10 -25 0
-142 -34 -175 -51 -10 -5 -32 -9 -49 -9 -16 0 -38 -4 -48 -9 -33 -18 -229 -16
-341 4 -35 6 -98 52 -99 72 -2 21 -125 107 -187 129 -33 12 -84 36 -113 53
-28 17 -58 31 -65 31 -8 0 -19 7 -26 14 -6 8 -34 22 -61 31 -27 9 -51 21 -54
26 -4 5 -14 9 -24 9 -10 0 -32 7 -49 16 -17 8 -48 18 -69 21 -21 3 -45 11 -53
18 -8 8 -44 23 -80 35 -36 12 -69 25 -75 29 -5 5 -31 13 -57 20 -26 6 -78 25
-115 42 -189 86 -242 120 -304 199 l-40 50 28 11 c15 5 54 17 86 26 62 18 79
35 56 58 -12 11 -26 10 -84 -6 -38 -10 -79 -21 -90 -24 -16 -5 -25 5 -47 52
-14 32 -29 70 -33 85 -7 26 -6 27 22 19 15 -5 49 -18 76 -30 51 -22 77 -19 77
10 0 18 -92 69 -152 84 -24 6 -27 11 -22 34 10 46 36 115 50 132 8 8 14 20 14
25 1 18 48 62 91 87 40 22 44 27 43 61 -1 25 -11 49 -33 76 -17 21 -31 50 -31
63 0 14 -7 27 -15 31 -14 5 -22 56 -9 56 3 0 20 -8 37 -17 18 -10 34 -19 36
-20 2 -1 7 -23 12 -49 10 -53 47 -107 87 -128 35 -18 144 -36 215 -36 31 0 57
-2 57 -4 0 -2 -6 -21 -13 -42 -20 -60 -8 -230 19 -271 8 -13 12 -23 9 -23 -17
0 34 -60 82 -97 49 -37 62 -42 130 -49 60 -5 82 -3 110 10 18 9 37 16 42 16 5
0 28 -18 52 -41 24 -22 60 -49 79 -59 19 -10 59 -34 89 -54 29 -20 65 -39 80
-42 14 -4 31 -10 36 -14 26 -19 83 3 128 48 42 43 117 170 117 198 0 6 17 19
38 28 81 35 147 77 207 135 59 56 64 59 84 45 28 -20 222 -28 247 -9 10 6 15
19 11 27 -4 12 -30 17 -114 21 -60 3 -126 12 -148 21 -75 28 -135 64 -161 95
-31 38 -64 42 -64 8 0 -25 60 -86 111 -113 16 -8 29 -17 29 -21 0 -7 -78 -83
-86 -83 -3 0 -14 -9 -26 -20 -12 -11 -27 -20 -34 -20 -6 0 -41 -14 -78 -30
-52 -24 -82 -31 -132 -31 -67 -1 -147 14 -201 37 -17 8 -35 14 -41 14 -5 0
-29 16 -53 35 -24 19 -50 35 -56 35 -7 0 -19 -15 -27 -33 -15 -38 -68 -95
-109 -121 -44 -27 -123 -36 -171 -19 -105 36 -158 140 -152 293 3 49 11 101
21 124 46 108 137 201 250 257 98 48 159 61 290 61 99 0 119 -4 194 -47 30
-17 51 -9 51 19 0 16 -13 27 -57 47 -102 47 -146 51 -287 30 -69 -11 -134 -24
-145 -30 -11 -6 -23 -11 -28 -11 -10 0 -40 58 -78 150 -42 100 -100 169 -180
212 -54 30 -197 32 -267 5 -83 -32 -139 -120 -153 -236 -8 -70 -23 -78 -73
-36 -30 25 -52 19 -52 -15 0 -16 81 -70 105 -70 17 0 21 -35 5 -45 -5 -3 -28
4 -51 15 -22 12 -44 19 -47 16 -12 -12 -53 111 -69 204 -22 132 -23 152 -25
355 -2 198 9 296 48 454 15 58 27 113 28 121 3 22 45 160 61 195 7 17 18 46
25 65 15 45 23 62 54 132 14 31 26 63 26 71 0 8 11 31 25 51 14 20 25 39 25
42 0 2 13 23 30 46 16 22 30 47 30 54 0 7 18 34 40 59 22 25 40 50 40 54 0 4
25 33 55 65 30 31 55 61 55 66 0 5 8 15 18 22 9 7 43 46 76 86 84 103 234 238
371 332 12 8 41 29 65 45 23 17 51 35 61 41 11 6 27 18 37 27 45 41 160 107
244 142 158 64 167 68 173 84 3 8 -1 21 -9 30 -13 12 -23 13 -68 2 -29 -6 -77
-23 -106 -37 -30 -14 -55 -24 -57 -22 -12 13 0 94 16 104 5 3 9 12 9 20 0 8
11 31 24 52 12 20 27 48 31 62 4 14 13 32 21 40 7 9 26 40 42 70 35 65 116
185 172 255 98 121 391 425 411 425 4 0 13 9 19 20 6 11 21 25 34 32 22 12 78
58 149 121 17 15 36 27 41 27 5 0 27 15 50 33 23 18 73 53 111 78 39 25 83 54
99 65 16 10 37 24 47 30 10 6 27 18 36 26 28 24 501 258 522 258 10 0 24 7 31
15 7 8 22 15 34 15 12 0 30 6 41 14 11 8 40 20 65 27 25 7 50 16 56 21 6 4 47
17 90 28 43 11 88 24 99 29 11 5 47 17 80 26 33 10 80 23 105 31 25 7 81 18
125 24 44 5 115 16 158 23 42 6 114 11 160 9 71 -2 84 -5 100 -25z m-3690
-4444 c45 -31 95 -99 124 -168 33 -79 63 -153 63 -158 0 -3 -8 -7 -17 -10 -10
-3 -39 -22 -65 -42 l-46 -36 -7 30 c-8 39 -27 53 -77 57 -59 5 -68 19 -25 40
35 17 56 50 55 89 -1 53 -46 148 -102 214 l-21 24 40 -7 c22 -4 57 -19 78 -33z
m-273 -203 c24 -24 33 -25 50 -5 16 19 64 20 79 1 19 -23 18 -126 -2 -171 -30
-66 -33 -70 -60 -73 -34 -4 -90 38 -125 92 -18 30 -25 55 -26 95 -1 49 2 56
24 68 33 17 37 16 60 -7z m4675 -944 c119 -2 150 -5 206 -26 l67 -24 -5 -40
c-3 -23 -11 -57 -18 -76 -13 -36 -32 -122 -39 -175 -2 -16 -16 -98 -30 -180
-14 -83 -30 -186 -36 -230 -5 -44 -11 -96 -14 -115 -2 -19 -7 -69 -10 -110
-14 -175 -15 -177 -50 -204 -30 -22 -67 -41 -131 -67 -11 -4 -33 -10 -50 -13
-16 -2 -52 -10 -80 -16 -54 -12 -127 -14 -214 -5 -42 4 -58 2 -72 -11 -17 -16
-21 -13 -75 42 -70 71 -123 152 -159 241 -15 38 -33 75 -40 83 -7 8 -16 26
-20 40 -4 14 -15 36 -24 50 -19 29 -37 74 -62 160 -10 36 -23 74 -28 85 -5 11
-12 34 -14 50 -3 17 -14 66 -25 110 -35 135 -55 267 -53 335 1 35 3 65 4 66 1
2 36 5 77 9 41 3 107 10 145 15 104 15 149 16 390 12 121 -2 283 -5 360 -6z
m-1425 -125 c0 -11 -4 -23 -10 -26 -5 -3 -10 -16 -10 -29 0 -12 -4 -26 -9 -31
-5 -6 -28 -47 -51 -93 -24 -46 -49 -86 -56 -89 -8 -3 -14 -11 -14 -18 0 -8
-24 -38 -52 -68 -196 -204 -245 -253 -259 -262 -8 -5 -32 -21 -52 -33 -20 -13
-37 -27 -37 -31 0 -4 -21 -20 -47 -35 -27 -14 -55 -31 -63 -36 -8 -5 -22 -11
-30 -14 -8 -3 -22 -10 -30 -15 -18 -10 -172 -71 -181 -71 -12 0 4 106 22 148
23 54 119 156 162 172 85 32 146 71 211 135 67 67 84 91 137 194 15 31 39 55
82 82 33 22 67 39 76 39 9 0 40 16 69 35 44 30 106 59 135 64 4 0 7 -8 7 -18z
m1833 -4 c69 -19 81 -35 78 -104 -1 -31 -7 -63 -12 -69 -6 -7 -9 -18 -8 -26 1
-7 0 -20 -4 -28 -3 -8 -10 -44 -16 -80 -9 -61 -18 -108 -57 -305 -23 -119 -64
-296 -76 -327 -7 -19 -22 -30 -58 -42 -75 -25 -74 -26 -67 67 9 107 14 158 26
237 6 36 13 92 16 125 4 33 12 92 20 130 16 85 26 149 31 193 3 29 17 85 45
178 5 17 9 38 9 47 0 20 9 20 73 4z m187 -153 c8 -8 28 -21 46 -29 41 -17 206
-180 229 -226 10 -19 27 -44 38 -57 17 -19 19 -28 11 -60 -13 -54 -50 -56
-102 -5 -57 55 -66 61 -117 74 -39 10 -49 9 -56 -2 -22 -35 4 -82 41 -72 16 4
34 -8 71 -46 69 -71 87 -136 50 -182 l-19 -23 -55 47 c-76 65 -139 65 -123 2
4 -15 16 -27 31 -31 38 -9 115 -104 115 -141 0 -35 -26 -71 -55 -75 -25 -3
-157 37 -207 63 -20 10 -49 19 -64 19 -20 0 -25 4 -20 16 8 21 51 230 71 344
9 47 20 98 25 114 6 16 10 42 10 58 0 17 7 53 15 81 12 43 19 83 24 140 2 13
28 8 41 -9z m-2955 -499 c-23 -43 -35 -79 -35 -105 0 -21 -4 -42 -10 -45 -6
-4 -8 -95 -6 -243 4 -197 9 -263 31 -392 44 -262 53 -313 64 -365 7 -27 18
-81 27 -120 8 -38 22 -92 29 -120 8 -27 17 -66 20 -85 4 -19 15 -62 26 -94 10
-33 19 -69 19 -80 0 -12 7 -34 15 -50 8 -15 15 -37 15 -47 0 -10 5 -21 10 -24
6 -3 10 -17 10 -31 0 -14 7 -39 16 -55 8 -17 17 -42 19 -57 4 -31 34 -112 47
-126 14 -17 9 -36 -11 -36 -10 0 -34 -6 -52 -14 -41 -17 -164 -39 -364 -66
-82 -11 -181 -25 -220 -30 -38 -6 -100 -12 -136 -13 l-66 -3 -7 166 c-11 244
-15 305 -26 410 -5 52 -12 133 -15 180 -7 112 -31 291 -50 360 -8 30 -26 105
-41 165 -14 61 -34 137 -44 170 -19 66 -40 163 -45 210 -2 17 -11 50 -20 75
-9 25 -17 73 -17 107 0 35 -4 66 -9 69 -5 3 -9 12 -9 20 0 8 -11 32 -25 52
-14 20 -25 39 -25 42 0 3 32 6 70 8 39 1 87 9 108 16 35 14 147 47 222 66 63
16 183 51 277 81 50 16 101 29 112 29 12 0 21 4 21 8 0 7 60 26 97 31 7 0 -3
-28 -22 -64z m-1283 -49 c32 -60 109 -100 224 -115 29 -4 64 -17 80 -30 35
-28 84 -100 84 -124 0 -17 -7 -18 -72 -13 -129 10 -171 18 -262 47 -49 16 -94
29 -99 29 -23 0 -107 64 -125 94 -24 40 -17 54 46 101 58 43 105 47 124 11z
m-1494 -60 c45 -3 95 -12 110 -20 15 -8 41 -19 57 -26 29 -10 71 -44 108 -87
17 -19 17 -22 -7 -69 -14 -27 -27 -56 -30 -64 -4 -8 -15 -29 -25 -46 -10 -17
-22 -45 -26 -62 -3 -18 -10 -34 -15 -37 -17 -11 -65 109 -70 175 -4 56 -8 65
-26 68 -33 5 -46 -22 -47 -92 0 -74 29 -145 75 -179 22 -17 30 -18 43 -7 17
14 19 8 6 -18 -4 -9 -20 -41 -35 -69 -14 -29 -26 -62 -26 -72 0 -11 -4 -22 -9
-25 -4 -3 -14 -26 -21 -51 -7 -25 -17 -48 -21 -51 -5 -3 -9 -13 -9 -22 0 -21
-72 -171 -82 -171 -12 -1 -98 64 -163 124 -33 30 -74 67 -91 82 -17 16 -38 42
-47 58 -8 17 -24 39 -36 49 -12 11 -21 23 -21 29 0 5 -9 21 -19 36 -22 31 -44
104 -43 144 1 61 43 112 56 70 12 -38 111 -141 143 -149 46 -12 90 46 45 60
-49 16 -152 159 -152 212 0 35 21 74 41 74 9 0 30 -15 46 -32 59 -68 122 -88
144 -46 10 18 8 24 -11 40 -12 10 -28 18 -35 18 -24 0 -66 67 -61 97 8 40 82
75 141 67 17 -2 67 -6 113 -8z m432 -156 c3 -3 13 -10 24 -13 17 -7 16 -10 -8
-42 -15 -19 -48 -74 -73 -122 -25 -49 -57 -105 -70 -125 -12 -21 -23 -45 -23
-53 0 -9 -9 -33 -19 -53 -69 -132 -171 -413 -171 -472 l0 -31 -29 22 c-16 12
-31 29 -34 39 -6 24 18 115 41 154 10 17 35 78 56 136 20 58 55 141 76 185 22
44 53 116 70 160 17 44 35 84 41 90 5 5 9 15 9 23 0 7 11 28 25 46 14 18 25
40 25 48 0 8 3 18 7 21 7 8 45 -1 53 -13z m766 -17 c-62 -409 -86 -882 -61
-1198 8 -97 10 -174 5 -179 -12 -12 -289 -1 -324 13 -16 6 -50 12 -75 13 -25
1 -51 6 -58 11 -7 5 -45 15 -85 24 -40 8 -96 26 -124 39 -28 13 -55 24 -60 24
-17 0 -117 75 -153 114 -20 21 -46 49 -58 62 -13 14 -28 34 -34 46 -14 26 -15
174 0 191 5 7 14 31 20 52 12 51 29 101 49 143 8 17 12 35 9 38 -4 4 3 18 13
32 11 13 20 33 20 42 0 19 5 31 84 187 25 51 46 99 46 106 0 8 9 22 20 32 11
10 20 22 20 26 0 7 75 136 86 148 2 2 32 -8 68 -23 60 -26 70 -27 192 -23 145
4 225 24 334 81 36 19 67 34 68 35 2 1 1 -16 -2 -36z m3050 -355 c3 -12 21
-36 38 -53 49 -49 97 -106 129 -152 16 -24 33 -43 37 -43 5 0 11 -9 15 -20 3
-11 26 -41 51 -67 24 -27 44 -52 44 -56 0 -12 -68 -77 -80 -77 -14 0 -135 122
-150 151 -7 13 -26 40 -41 59 -36 46 -105 177 -113 215 -6 26 -2 33 21 47 36
23 40 22 49 -4z m836 -458 c-8 -58 -52 -132 -105 -180 -28 -25 -84 -78 -125
-117 -42 -40 -84 -73 -94 -73 -10 0 -18 -4 -18 -10 0 -5 -16 -16 -35 -24 -19
-8 -35 -19 -35 -25 0 -5 -13 -12 -29 -16 -16 -3 -35 -13 -42 -21 -6 -8 -16
-14 -21 -14 -5 0 -35 -17 -66 -39 -110 -74 -138 -91 -153 -92 -7 0 -27 -9 -44
-20 -29 -18 -37 -22 -80 -38 -70 -27 -177 -80 -216 -107 -25 -17 -67 -41 -92
-52 -25 -11 -66 -34 -90 -51 -24 -16 -64 -38 -88 -47 -24 -9 -48 -20 -54 -24
-18 -14 -139 -59 -190 -71 -27 -6 -55 -16 -61 -20 -16 -13 -188 -13 -213 0
-28 15 -27 31 2 31 12 0 31 7 41 15 11 8 27 15 36 15 9 0 39 11 65 25 27 13
62 27 78 31 17 3 57 19 91 35 34 16 70 29 80 29 16 0 300 132 346 161 8 5 39
20 68 34 68 31 234 129 293 171 26 19 51 34 56 34 6 0 18 9 28 20 10 11 22 20
26 20 4 0 29 15 55 33 25 17 72 50 104 72 97 67 170 125 170 135 0 6 5 10 11
10 6 0 25 12 43 26 17 14 49 40 70 58 21 17 53 46 70 64 17 19 48 50 69 70 20
19 38 42 38 51 1 9 5 -2 9 -24 4 -22 5 -56 2 -75z m785 -114 c63 -13 99 -35
134 -80 19 -24 27 -26 96 -26 100 0 149 -16 196 -64 78 -81 84 -151 22 -242
-43 -62 -42 -78 8 -145 18 -24 41 -65 50 -90 16 -41 16 -49 2 -75 -8 -16 -15
-36 -15 -44 0 -26 -46 -114 -74 -141 -18 -18 -42 -28 -75 -33 -88 -12 -111
-24 -111 -59 0 -18 -7 -43 -15 -57 -8 -14 -21 -38 -29 -55 -24 -50 -76 -109
-108 -122 -17 -7 -57 -13 -90 -13 l-60 0 6 33 c4 17 9 59 11 92 2 33 7 94 10
135 6 65 -4 229 -21 370 -6 47 -29 131 -65 235 -11 33 -23 73 -26 88 -3 16
-12 31 -19 34 -8 3 -14 13 -14 22 0 9 -23 43 -52 75 -50 56 -51 59 -37 84 17
30 118 74 209 90 3 1 33 -5 67 -12z m-4384 -153 c6 -65 0 -382 -8 -415 -6 -22
-13 -27 -50 -30 -54 -4 -56 2 -49 132 3 52 5 129 5 170 0 41 2 98 5 127 6 51
7 52 43 56 20 2 39 4 42 5 4 1 9 -19 12 -45z m-57 -833 c16 -5 56 -14 89 -19
93 -15 127 -21 160 -31 17 -5 77 -16 133 -25 57 -8 112 -20 122 -25 9 -5 28
-7 40 -5 18 3 169 -21 177 -28 1 -1 -1 -14 -4 -28 -4 -24 -11 -28 -56 -33 -29
-3 -79 -1 -112 4 -33 6 -73 13 -90 15 -26 4 -137 26 -200 40 -11 3 -41 9 -66
14 -25 6 -84 27 -130 49 -114 53 -160 105 -63 72z m4316 -861 c50 -51 85 -96
81 -102 -4 -6 -7 -38 -8 -71 -1 -34 -7 -86 -13 -116 -18 -85 -72 -248 -99
-298 -14 -26 -31 -67 -40 -92 -8 -25 -21 -52 -28 -60 -7 -8 -23 -35 -35 -60
-13 -25 -42 -77 -66 -117 -24 -39 -44 -79 -44 -88 0 -8 -7 -18 -15 -21 -8 -4
-15 -13 -15 -21 0 -7 -12 -26 -27 -41 -16 -15 -40 -45 -55 -67 -14 -22 -42
-57 -62 -78 -20 -21 -36 -42 -36 -46 0 -4 -13 -17 -29 -29 l-29 -21 -23 46
c-12 26 -30 54 -38 63 -9 8 -35 37 -57 63 -47 53 -149 127 -177 127 -10 0 -28
7 -40 14 -80 53 -366 63 -472 16 -28 -12 -85 -23 -85 -15 0 3 7 22 15 42 8 19
15 43 15 52 1 32 34 58 85 64 109 14 126 18 170 33 41 13 47 13 61 -1 8 -8 22
-15 30 -15 8 0 22 -4 32 -9 24 -12 277 -58 331 -60 25 -1 48 -4 52 -7 4 -2 38
3 74 12 53 14 71 23 92 50 21 28 25 42 20 74 -5 40 -41 89 -64 90 -7 0 -13 4
-13 9 0 12 -121 51 -157 51 -27 0 -27 0 -8 19 18 18 27 19 105 10 111 -14 142
-12 219 8 71 19 101 51 101 109 0 49 -69 104 -130 104 -39 0 -37 4 22 72 133
151 160 194 218 341 14 37 28 57 39 57 9 0 55 -41 103 -91z m143 -395 c-4 -76
-15 -153 -26 -193 -11 -36 -22 -77 -25 -91 -3 -14 -17 -50 -31 -80 -90 -194
-88 -191 -171 -302 -23 -31 -42 -61 -42 -66 0 -7 -33 -46 -113 -132 -146 -156
-344 -323 -439 -371 -85 -43 -123 -52 -69 -16 101 65 124 84 214 167 140 129
164 154 192 198 15 23 31 42 36 42 4 0 15 15 24 34 9 19 23 37 31 40 8 3 14
10 14 17 0 6 15 29 34 52 18 23 51 74 71 112 21 39 55 97 75 130 20 33 44 81
54 105 10 25 22 50 26 55 18 21 140 373 140 402 0 13 3 23 6 23 3 0 3 -57 -1
-126z m-4503 -101 c14 -32 36 -83 48 -113 13 -30 31 -73 40 -95 57 -129 65
-152 62 -172 -4 -25 -22 -29 -55 -12 -28 14 -77 60 -77 71 0 5 -20 39 -44 76
-24 37 -54 88 -66 114 -12 26 -28 52 -36 59 -8 6 -14 19 -14 28 0 10 -7 26
-15 37 -35 46 -17 60 80 63 l50 1 27 -57z m3958 42 c69 -9 93 -42 48 -66 -23
-13 -194 -16 -206 -5 -3 4 12 24 33 46 26 27 45 38 59 35 12 -2 41 -6 66 -10z
m-3804 -10 c5 -1 16 -22 24 -46 7 -24 29 -70 47 -102 18 -32 33 -62 33 -68 0
-5 4 -9 9 -9 6 0 26 -30 46 -67 84 -161 184 -202 270 -113 25 26 28 37 28 97
1 68 0 71 -70 213 -2 3 132 5 297 5 l299 0 27 -35 c35 -46 64 -115 64 -150 0
-35 -9 -60 -22 -60 -5 0 -35 -22 -66 -49 -31 -26 -64 -51 -72 -55 -8 -3 -33
-17 -55 -30 -22 -13 -69 -39 -105 -58 -36 -18 -66 -36 -68 -40 -2 -5 -9 -8
-15 -8 -7 0 -32 -11 -57 -24 -25 -13 -83 -36 -130 -51 -47 -16 -89 -32 -95
-36 -5 -4 -28 -10 -50 -14 -22 -4 -65 -14 -95 -22 -30 -8 -68 -16 -85 -18 -16
-2 -61 -8 -99 -13 -38 -5 -119 -10 -180 -11 l-111 -2 -2 116 c-2 110 -27 257
-53 303 -5 9 -19 41 -31 70 -12 29 -30 57 -40 63 -11 5 -19 16 -19 24 0 20
-63 76 -122 107 -29 15 -45 29 -37 31 8 2 30 10 49 16 78 28 74 30 119 -62 22
-47 46 -89 52 -92 9 -6 29 -48 31 -65 0 -3 18 -29 39 -59 22 -30 39 -59 39
-64 0 -16 71 -91 109 -114 39 -25 75 -29 117 -13 71 27 74 104 9 238 -25 51
-45 97 -45 102 0 9 -16 49 -51 126 -11 23 -19 44 -19 47 0 5 60 0 86 -8z m205
-56 c66 -12 92 -35 137 -121 39 -75 51 -152 26 -179 -20 -22 -64 -26 -64 -5 0
8 -9 17 -20 21 -19 6 -34 27 -66 95 -9 19 -22 42 -29 50 -17 19 -62 101 -75
136 -10 25 -9 26 12 20 13 -4 48 -11 79 -17z m-785 -74 c57 -17 122 -68 155
-122 13 -21 30 -44 39 -53 8 -8 21 -35 28 -60 7 -25 18 -58 24 -75 17 -47 32
-313 19 -329 -9 -10 -34 -12 -104 -9 -50 3 -96 9 -102 14 -5 5 -18 9 -29 9
-76 0 -310 110 -395 186 -29 25 -32 33 -28 69 7 58 22 109 46 155 12 22 21 47
21 56 0 17 116 134 134 134 6 1 29 9 51 20 49 23 76 24 141 5z m4084 -100 c66
-9 175 -58 190 -85 7 -13 4 -22 -13 -37 -17 -15 -39 -20 -105 -22 -46 -1 -89
2 -95 8 -11 8 -92 27 -201 46 l-40 7 85 48 c74 43 89 48 124 43 22 -4 47 -7
55 -8z m-2430 -201 c0 -11 -65 -140 -87 -173 -40 -59 -86 -101 -135 -123 -27
-11 -48 -24 -48 -28 0 -4 -12 -11 -27 -15 -16 -3 -60 -22 -100 -41 -40 -19
-79 -34 -86 -34 -8 0 -20 -6 -26 -14 -6 -8 -24 -16 -39 -20 -93 -19 -141 -32
-154 -43 -8 -7 -41 -15 -74 -19 -32 -3 -73 -12 -91 -19 -18 -8 -85 -17 -150
-20 -65 -4 -158 -9 -208 -11 -121 -7 -316 -7 -335 -1 -8 3 -37 8 -64 12 -27 4
-58 10 -70 15 -11 4 -48 15 -81 25 -82 24 -121 42 -174 81 -60 43 -83 76 -98
138 -18 74 -17 83 5 63 10 -10 26 -17 35 -17 9 0 17 -5 17 -10 0 -11 100 -62
158 -81 20 -6 46 -17 57 -24 48 -29 196 -57 318 -58 176 -3 377 5 417 15 19 5
49 9 67 8 17 0 51 4 75 10 23 6 62 12 85 14 24 2 49 8 55 13 7 6 28 13 46 17
19 3 48 12 65 20 18 9 68 27 112 42 44 15 87 33 96 40 8 8 22 14 29 14 15 0
187 85 210 104 8 7 35 23 59 35 25 13 63 38 85 57 37 32 56 41 56 28z m2195
-169 c11 -6 46 -22 78 -33 32 -12 70 -30 85 -39 45 -28 140 -135 168 -187 30
-57 26 -86 -13 -112 -15 -9 -42 -32 -59 -51 -17 -18 -38 -33 -45 -33 -8 0 -20
-9 -27 -20 -6 -11 -33 -31 -59 -45 -193 -104 -196 -105 -283 -100 -41 3 -104
15 -140 27 -171 55 -220 111 -222 249 -1 78 10 233 18 260 9 32 114 77 214 92
105 16 254 12 285 -8z"/>
<path d="M9319 11145 c-2 -2 -56 -6 -119 -9 -153 -8 -229 -17 -236 -27 -3 -5
-19 -9 -36 -9 -55 0 -278 -78 -391 -135 -16 -8 -35 -15 -43 -15 -8 0 -17 -7
-20 -15 -4 -8 -14 -15 -24 -15 -10 0 -23 -7 -30 -15 -7 -8 -20 -15 -29 -16 -9
0 -50 -22 -91 -50 -41 -27 -86 -55 -100 -61 -14 -7 -28 -18 -32 -24 -4 -7 -27
-22 -50 -34 -24 -12 -50 -28 -58 -36 -37 -34 -142 -115 -215 -166 -44 -31 -94
-69 -112 -85 -71 -64 -385 -337 -461 -400 -27 -23 -66 -53 -86 -66 -19 -14
-58 -43 -85 -66 -27 -23 -52 -41 -56 -41 -6 0 -94 -63 -160 -114 -11 -9 -54
-38 -95 -64 -41 -27 -84 -59 -95 -72 -11 -12 -29 -26 -40 -31 -25 -11 -50 -27
-95 -59 -40 -29 -49 -34 -130 -78 -33 -18 -75 -41 -92 -50 -33 -19 -52 -60
-37 -83 7 -11 17 -11 61 3 49 15 75 21 213 48 144 28 221 45 260 60 117 43
237 81 268 86 16 2 33 7 38 10 6 3 43 14 82 25 40 10 113 30 162 44 50 13 108
29 130 34 57 14 296 100 320 115 20 13 110 45 130 47 6 0 17 6 25 14 8 7 26
16 40 20 14 4 57 22 95 40 39 18 88 38 110 45 22 7 69 28 105 47 36 18 69 33
74 33 15 0 139 62 204 102 34 21 65 38 68 38 5 0 64 40 74 50 3 3 25 19 50 35
25 17 61 45 80 62 19 18 39 33 44 33 26 0 362 315 466 436 64 75 130 165 130
178 0 7 7 19 15 26 8 7 15 19 15 26 0 8 12 37 28 64 26 50 27 51 8 65 -11 8
-36 17 -55 21 -20 3 -45 9 -56 14 -20 9 -160 21 -166 15z"/>
<path d="M5045 8104 c-5 -1 -22 -5 -37 -8 -44 -10 -123 -80 -142 -126 -17 -43
-9 -80 18 -80 18 0 39 27 31 39 -13 22 26 71 78 98 45 24 63 27 139 26 53 0
93 -5 102 -12 20 -17 56 -4 56 19 0 20 -7 23 -90 39 -49 10 -126 13 -155 5z"/>
<path d="M3563 7849 c-71 -13 -147 -61 -173 -109 -11 -20 -10 -25 5 -36 21
-16 41 -9 48 17 3 10 16 23 29 29 12 5 30 14 38 19 57 36 110 36 170 1 28 -16
57 -30 65 -30 23 0 18 34 -7 57 -57 51 -105 65 -175 52z"/>
<path d="M5145 7483 c-69 -15 -124 -40 -153 -67 -122 -118 -164 -221 -163
-408 1 -102 16 -152 57 -190 48 -43 187 -47 319 -9 315 91 395 125 445 188 26
33 26 101 1 153 l-19 39 38 15 c44 17 110 83 110 109 0 25 -46 23 -60 -3 -12
-22 -106 -74 -119 -65 -5 3 -18 20 -29 39 l-20 34 22 6 c30 7 106 79 106 100
0 25 -44 19 -71 -10 -13 -15 -39 -33 -58 -41 -32 -13 -35 -13 -60 9 -46 42
-105 76 -151 88 -48 13 -162 21 -195 13z m257 -101 c45 -28 115 -108 153 -177
16 -27 34 -57 41 -65 19 -24 27 -77 14 -100 -12 -22 -70 -62 -107 -74 -21 -7
-23 -4 -23 31 0 61 -42 113 -92 113 -33 0 -34 6 -8 40 21 26 26 78 11 108 -5
9 -15 30 -22 46 -7 15 -33 49 -56 74 -24 25 -43 47 -43 48 0 8 104 -26 132
-44z m-210 -169 c36 -22 59 -73 52 -116 -10 -54 -62 -153 -95 -182 -29 -24
-37 -26 -83 -20 -43 6 -58 14 -93 51 -83 89 -108 194 -52 221 34 17 88 1 118
-33 l24 -27 19 44 c19 41 52 78 71 79 5 0 22 -8 39 -17z"/>
<path d="M6270 7113 c-61 -10 -167 -34 -185 -42 -65 -27 -132 -51 -146 -51 -8
0 -24 -7 -35 -15 -10 -8 -24 -15 -30 -15 -6 0 -62 -28 -124 -62 -134 -75 -244
-171 -238 -209 2 -16 11 -25 26 -27 12 -2 22 1 22 6 0 15 111 121 135 128 11
4 34 16 50 28 58 41 77 51 145 79 14 5 39 15 55 22 66 28 83 34 145 53 134 42
173 52 204 52 55 0 108 19 104 38 -2 13 -15 17 -53 18 -28 1 -61 0 -75 -3z"/>
<path d="M6319 6816 c-2 -2 -31 -7 -63 -11 -33 -3 -62 -8 -65 -9 -3 -2 -33 -7
-66 -10 -33 -3 -84 -15 -113 -26 -29 -11 -60 -20 -69 -20 -15 0 -120 -49 -208
-98 -41 -22 -96 -82 -93 -100 5 -26 37 -26 63 0 13 12 30 28 38 35 28 22 172
93 189 93 9 0 19 4 22 9 3 5 30 14 58 21 29 6 60 14 68 17 17 7 7 5 175 28 72
9 179 18 239 19 120 1 146 14 82 41 -32 14 -245 23 -257 11z"/>
<path d="M4140 6688 c-19 -5 -58 -30 -87 -54 -80 -69 -85 -137 -13 -205 91
-86 228 -121 314 -80 79 39 125 119 126 220 0 53 -33 97 -87 115 -53 18 -197
20 -253 4z"/>
</g>
</svg>
